<svg width="567.7642944335937px" height="74px" xmlns="http://www.w3.org/2000/svg" viewBox="-33.88214721679685 38 567.7642944335937 74" style="background: none;" preserveAspectRatio="xMidYMid"><defs><linearGradient id="editing-outline-gradient" x1="1.1427876096865393" x2="-0.14278760968653936" y1="-0.266044443118978" y2="1.266044443118978"><stop offset="0" stop-color="#0a0a0a"></stop><stop offset="1" stop-color="#ffffff"></stop></linearGradient><filter id="editing-outline" x="-100%" y="-100%" width="300%" height="300%"><feMorphology in="SourceGraphic" operator="dilate" radius="1" result="outline"></feMorphology><feComposite operator="out" in="outline" in2="SourceAlpha"></feComposite></filter></defs><g filter="url(#editing-outline)"><g transform="translate(48.380539536476135, 86.55500221252441)"><path d="M28.28-6.61L28.28-6.61L28.28-6.61Q28.28-5.22 27.76-4.02L27.76-4.02L27.76-4.02Q27.25-2.82 26.35-1.93L26.35-1.93L26.35-1.93Q25.46-1.03 24.26-0.52L24.26-0.52L24.26-0.52Q23.06 0 21.69 0L21.69 0L1.61 0L1.61-3.30L21.69-3.30L21.69-3.30Q22.38-3.30 22.98-3.56L22.98-3.56L22.98-3.56Q23.57-3.82 24.02-4.27L24.02-4.27L24.02-4.27Q24.46-4.72 24.72-5.33L24.72-5.33L24.72-5.33Q24.98-5.93 24.98-6.61L24.98-6.61L24.98-6.61Q24.98-7.28 24.72-7.88L24.72-7.88L24.72-7.88Q24.46-8.48 24.02-8.93L24.02-8.93L24.02-8.93Q23.57-9.38 22.98-9.64L22.98-9.64L22.98-9.64Q22.38-9.89 21.69-9.89L21.69-9.89L8.22-9.89L8.22-9.89Q6.86-9.89 5.66-10.41L5.66-10.41L5.66-10.41Q4.45-10.92 3.55-11.82L3.55-11.82L3.55-11.82Q2.66-12.71 2.14-13.92L2.14-13.92L2.14-13.92Q1.61-15.13 1.61-16.50L1.61-16.50L1.61-16.50Q1.61-17.85 2.14-19.06L2.14-19.06L2.14-19.06Q2.66-20.27 3.55-21.16L3.55-21.16L3.55-21.16Q4.45-22.06 5.66-22.58L5.66-22.58L5.66-22.58Q6.86-23.11 8.22-23.11L8.22-23.11L26.64-23.11L26.64-19.80L8.22-19.80L8.22-19.80Q7.54-19.80 6.94-19.55L6.94-19.55L6.94-19.55Q6.33-19.29 5.88-18.84L5.88-18.84L5.88-18.84Q5.43-18.39 5.17-17.78L5.17-17.78L5.17-17.78Q4.91-17.18 4.91-16.50L4.91-16.50L4.91-16.50Q4.91-15.82 5.17-15.22L5.17-15.22L5.17-15.22Q5.43-14.61 5.88-14.16L5.88-14.16L5.88-14.16Q6.33-13.71 6.94-13.45L6.94-13.45L6.94-13.45Q7.54-13.20 8.22-13.20L8.22-13.20L21.69-13.20L21.69-13.20Q23.06-13.20 24.26-12.67L24.26-12.67L24.26-12.67Q25.46-12.15 26.35-11.26L26.35-11.26L26.35-11.26Q27.25-10.36 27.76-9.16L27.76-9.16L27.76-9.16Q28.28-7.96 28.28-6.61ZM58.81-14.86L58.81-14.86L58.81-14.86Q58.81-13.15 58.16-11.64L58.16-11.64L58.16-11.64Q57.51-10.14 56.39-9.02L56.39-9.02L56.39-9.02Q55.27-7.90 53.77-7.25L53.77-7.25L53.77-7.25Q52.27-6.61 50.56-6.61L50.56-6.61L37.30-6.61L37.30-9.86L50.56-9.86L50.56-9.86Q51.59-9.86 52.50-10.26L52.50-10.26L52.50-10.26Q53.40-10.65 54.07-11.33L54.07-11.33L54.07-11.33Q54.74-12.00 55.12-12.91L55.12-12.91L55.12-12.91Q55.51-13.83 55.51-14.86L55.51-14.86L55.51-14.86Q55.51-15.89 55.12-16.79L55.12-16.79L55.12-16.79Q54.74-17.69 54.07-18.36L54.07-18.36L54.07-18.36Q53.40-19.03 52.50-19.42L52.50-19.42L52.50-19.42Q51.59-19.80 50.56-19.80L50.56-19.80L35.45-19.80L35.45 0L32.15 0L32.15-23.11L50.56-23.11L50.56-23.11Q52.27-23.11 53.77-22.45L53.77-22.45L53.77-22.45Q55.27-21.80 56.39-20.68L56.39-20.68L56.39-20.68Q57.51-19.56 58.16-18.06L58.16-18.06L58.16-18.06Q58.81-16.56 58.81-14.86ZM88.67-23.11L88.67 0L85.37 0L85.37-6.61L66.93-6.61L66.93-9.89L85.37-9.89L85.37-19.80L73.52-19.80L73.52-19.80Q71.83-19.80 70.33-19.15L70.33-19.15L70.33-19.15Q68.84-18.50 67.72-17.38L67.72-17.38L67.72-17.38Q66.61-16.26 65.96-14.76L65.96-14.76L65.96-14.76Q65.31-13.26 65.31-11.55L65.31-11.55L65.31 0L62.00 0L62.00-11.55L62.00-11.55Q62.00-13.15 62.41-14.62L62.41-14.62L62.41-14.62Q62.83-16.10 63.57-17.38L63.57-17.38L63.57-17.38Q64.32-18.66 65.38-19.71L65.38-19.71L65.38-19.71Q66.44-20.77 67.72-21.53L67.72-21.53L67.72-21.53Q69.00-22.28 70.46-22.70L70.46-22.70L70.46-22.70Q71.93-23.11 73.52-23.11L73.52-23.11L88.67-23.11ZM118.40-3.30L118.40 0L103.53 0L103.53 0Q101.13 0 99.16-0.90L99.16-0.90L99.16-0.90Q97.20-1.80 95.80-3.37L95.80-3.37L95.80-3.37Q94.41-4.93 93.65-7.04L93.65-7.04L93.65-7.04Q92.89-9.15 92.89-11.55L92.89-11.55L92.89-11.55Q92.89-13.94 93.65-16.04L93.65-16.04L93.65-16.04Q94.41-18.14 95.80-19.71L95.80-19.71L95.80-19.71Q97.20-21.29 99.16-22.20L99.16-22.20L99.16-22.20Q101.13-23.11 103.53-23.11L103.53-23.11L118.40-23.11L118.40-19.80L103.53-19.80L103.53-19.80Q101.82-19.80 100.46-19.15L100.46-19.15L100.46-19.15Q99.10-18.50 98.15-17.38L98.15-17.38L98.15-17.38Q97.21-16.26 96.70-14.76L96.70-14.76L96.70-14.76Q96.20-13.26 96.20-11.55L96.20-11.55L96.20-11.55Q96.20-9.85 96.70-8.34L96.70-8.34L96.70-8.34Q97.21-6.83 98.15-5.71L98.15-5.71L98.15-5.71Q99.10-4.59 100.46-3.95L100.46-3.95L100.46-3.95Q101.82-3.30 103.53-3.30L103.53-3.30L118.40-3.30ZM146.29-3.30L146.29 0L122.40 0L122.40-23.11L146.29-23.11L146.29-19.80L125.70-19.80L125.70-3.30L146.29-3.30ZM143.49-13.20L143.49-9.89L127.34-9.89L127.34-13.20L143.49-13.20ZM174.80-19.80L174.80 0L171.49 0L171.49-19.80L159.81-19.80L159.81-23.11L186.48-23.11L186.48-19.80L174.80-19.80ZM216.80-11.55L216.80-11.55L216.80-11.55Q216.80-9.15 216.05-7.04L216.05-7.04L216.05-7.04Q215.29-4.93 213.90-3.37L213.90-3.37L213.90-3.37Q212.50-1.80 210.55-0.90L210.55-0.90L210.55-0.90Q208.60 0 206.22 0L206.22 0L198.53 0L198.53 0Q196.13 0 194.17-0.90L194.17-0.90L194.17-0.90Q192.20-1.80 190.81-3.37L190.81-3.37L190.81-3.37Q189.41-4.93 188.65-7.04L188.65-7.04L188.65-7.04Q187.90-9.15 187.90-11.55L187.90-11.55L187.90-11.55Q187.90-13.94 188.65-16.04L188.65-16.04L188.65-16.04Q189.41-18.14 190.81-19.71L190.81-19.71L190.81-19.71Q192.20-21.29 194.17-22.20L194.17-22.20L194.17-22.20Q196.13-23.11 198.53-23.11L198.53-23.11L206.22-23.11L206.22-23.11Q208.60-23.11 210.55-22.20L210.55-22.20L210.55-22.20Q212.50-21.29 213.90-19.71L213.90-19.71L213.90-19.71Q215.29-18.14 216.05-16.04L216.05-16.04L216.05-16.04Q216.80-13.94 216.80-11.55ZM213.50-11.55L213.50-11.55L213.50-11.55Q213.50-13.26 213.00-14.76L213.00-14.76L213.00-14.76Q212.50-16.26 211.56-17.38L211.56-17.38L211.56-17.38Q210.62-18.50 209.27-19.15L209.27-19.15L209.27-19.15Q207.93-19.80 206.22-19.80L206.22-19.80L198.53-19.80L198.53-19.80Q196.82-19.80 195.46-19.15L195.46-19.15L195.46-19.15Q194.10-18.50 193.16-17.38L193.16-17.38L193.16-17.38Q192.22-16.26 191.71-14.76L191.71-14.76L191.71-14.76Q191.20-13.26 191.20-11.55L191.20-11.55L191.20-11.55Q191.20-9.85 191.71-8.34L191.71-8.34L191.71-8.34Q192.22-6.83 193.16-5.71L193.16-5.71L193.16-5.71Q194.10-4.59 195.46-3.95L195.46-3.95L195.46-3.95Q196.82-3.30 198.53-3.30L198.53-3.30L206.22-3.30L206.22-3.30Q207.93-3.30 209.27-3.95L209.27-3.95L209.27-3.95Q210.62-4.59 211.56-5.71L211.56-5.71L211.56-5.71Q212.50-6.83 213.00-8.34L213.00-8.34L213.00-8.34Q213.50-9.85 213.50-11.55ZM245.44-19.80L245.44 0L242.13 0L242.13-19.80L230.45-19.80L230.45-23.11L257.12-23.11L257.12-19.80L245.44-19.80ZM279.97-6.70L286.90 0L282.43 0L275.50-6.61L265.39-6.61L265.39-9.86L278.65-9.86L278.65-9.86Q279.68-9.86 280.58-10.26L280.58-10.26L280.58-10.26Q281.48-10.65 282.15-11.33L282.15-11.33L282.15-11.33Q282.82-12.00 283.21-12.91L283.21-12.91L283.21-12.91Q283.59-13.83 283.59-14.86L283.59-14.86L283.59-14.86Q283.59-15.89 283.21-16.79L283.21-16.79L283.21-16.79Q282.82-17.69 282.15-18.36L282.15-18.36L282.15-18.36Q281.48-19.03 280.58-19.42L280.58-19.42L280.58-19.42Q279.68-19.80 278.65-19.80L278.65-19.80L263.53-19.80L263.53 0L260.23 0L260.23-23.11L278.65-23.11L278.65-23.11Q280.35-23.11 281.85-22.45L281.85-22.45L281.85-22.45Q283.35-21.80 284.47-20.68L284.47-20.68L284.47-20.68Q285.59-19.56 286.24-18.06L286.24-18.06L286.24-18.06Q286.90-16.56 286.90-14.86L286.90-14.86L286.90-14.86Q286.90-13.31 286.37-11.93L286.37-11.93L286.37-11.93Q285.83-10.55 284.90-9.47L284.90-9.47L284.90-9.47Q283.96-8.38 282.70-7.66L282.70-7.66L282.70-7.66Q281.43-6.94 279.97-6.70L279.97-6.70ZM317.38-23.11L317.38 0L314.08 0L314.08-6.61L295.65-6.61L295.65-9.89L314.08-9.89L314.08-19.80L302.24-19.80L302.24-19.80Q300.54-19.80 299.05-19.15L299.05-19.15L299.05-19.15Q297.55-18.50 296.44-17.38L296.44-17.38L296.44-17.38Q295.32-16.26 294.67-14.76L294.67-14.76L294.67-14.76Q294.02-13.26 294.02-11.55L294.02-11.55L294.02 0L290.72 0L290.72-11.55L290.72-11.55Q290.72-13.15 291.13-14.62L291.13-14.62L291.13-14.62Q291.54-16.10 292.29-17.38L292.29-17.38L292.29-17.38Q293.04-18.66 294.09-19.71L294.09-19.71L294.09-19.71Q295.15-20.77 296.43-21.53L296.43-21.53L296.43-21.53Q297.71-22.28 299.18-22.70L299.18-22.70L299.18-22.70Q300.64-23.11 302.24-23.11L302.24-23.11L317.38-23.11ZM344.94-23.11L348.71-23.11L336.56 0L332.79 0L320.65-23.11L324.41-23.11L334.67-3.56L344.94-23.11ZM375.86-3.30L375.86 0L351.96 0L351.96-23.11L375.86-23.11L375.86-19.80L355.27-19.80L355.27-3.30L375.86-3.30ZM373.05-13.20L373.05-9.89L356.91-9.89L356.91-13.20L373.05-13.20ZM402.03-3.30L402.03 0L379.95 0L379.95-23.11L383.25-23.11L383.25-3.30L402.03-3.30Z" fill="url(#editing-outline-gradient)"></path></g></g><style>text {
  font-size: 64px;
  font-family: Arial Black;
  dominant-baseline: central;
  text-anchor: middle;
}</style></svg>